<mxfile host="app.diagrams.net" modified="2023-02-01T18:07:24.412Z" agent="5.0 (Windows NT 10.0; Win64; x64) AppleWebKit/537.36 (KHTML, like Gecko) Chrome/109.0.0.0 Safari/537.36" version="20.8.5" etag="arL4OgX2vAwoW39RqTcZ" type="github">
  <diagram id="brKKMgJPrSuERsmTEYoN" name="Page-1">
    <mxGraphModel dx="1050" dy="558" grid="1" gridSize="10" guides="1" tooltips="1" connect="1" arrows="1" fold="1" page="1" pageScale="1" pageWidth="850" pageHeight="1100" math="0" shadow="0">
      <root>
        <mxCell id="0" />
        <mxCell id="1" parent="0" />
        <mxCell id="Jqx5dntZI7fwhoWwZIE8-1" style="edgeStyle=orthogonalEdgeStyle;rounded=0;orthogonalLoop=1;jettySize=auto;html=1;exitX=1;exitY=0.75;exitDx=0;exitDy=0;entryX=0;entryY=0.38;entryDx=0;entryDy=0;entryPerimeter=0;" edge="1" parent="1" source="Jqx5dntZI7fwhoWwZIE8-4" target="Jqx5dntZI7fwhoWwZIE8-14">
          <mxGeometry relative="1" as="geometry">
            <Array as="points">
              <mxPoint x="410" y="275" />
              <mxPoint x="410" y="353" />
            </Array>
          </mxGeometry>
        </mxCell>
        <mxCell id="Jqx5dntZI7fwhoWwZIE8-2" style="edgeStyle=orthogonalEdgeStyle;rounded=0;orthogonalLoop=1;jettySize=auto;html=1;exitX=1;exitY=0.25;exitDx=0;exitDy=0;entryX=0;entryY=0.25;entryDx=0;entryDy=0;" edge="1" parent="1" source="Jqx5dntZI7fwhoWwZIE8-4" target="Jqx5dntZI7fwhoWwZIE8-15">
          <mxGeometry relative="1" as="geometry" />
        </mxCell>
        <mxCell id="Jqx5dntZI7fwhoWwZIE8-3" style="edgeStyle=orthogonalEdgeStyle;rounded=0;orthogonalLoop=1;jettySize=auto;html=1;exitX=0.25;exitY=1;exitDx=0;exitDy=0;entryX=0.25;entryY=0;entryDx=0;entryDy=0;" edge="1" parent="1" source="Jqx5dntZI7fwhoWwZIE8-4" target="Jqx5dntZI7fwhoWwZIE8-10">
          <mxGeometry relative="1" as="geometry" />
        </mxCell>
        <mxCell id="Jqx5dntZI7fwhoWwZIE8-4" value="&lt;b&gt;doctor:&lt;br&gt;Processor&lt;/b&gt;" style="rounded=0;whiteSpace=wrap;html=1;fillColor=#cce5ff;strokeColor=#36393d;" vertex="1" parent="1">
          <mxGeometry x="190" y="230" width="120" height="60" as="geometry" />
        </mxCell>
        <mxCell id="Jqx5dntZI7fwhoWwZIE8-5" style="edgeStyle=orthogonalEdgeStyle;rounded=0;orthogonalLoop=1;jettySize=auto;html=1;exitX=1;exitY=0.75;exitDx=0;exitDy=0;entryX=0;entryY=0.75;entryDx=0;entryDy=0;" edge="1" parent="1" source="Jqx5dntZI7fwhoWwZIE8-7" target="Jqx5dntZI7fwhoWwZIE8-11">
          <mxGeometry relative="1" as="geometry" />
        </mxCell>
        <mxCell id="Jqx5dntZI7fwhoWwZIE8-6" style="edgeStyle=orthogonalEdgeStyle;rounded=0;orthogonalLoop=1;jettySize=auto;html=1;exitX=1;exitY=0.25;exitDx=0;exitDy=0;entryX=0;entryY=0.75;entryDx=0;entryDy=0;" edge="1" parent="1" source="Jqx5dntZI7fwhoWwZIE8-7" target="Jqx5dntZI7fwhoWwZIE8-14">
          <mxGeometry relative="1" as="geometry" />
        </mxCell>
        <mxCell id="Jqx5dntZI7fwhoWwZIE8-7" value="&lt;b&gt;caseHistory:&lt;br&gt;Data&lt;/b&gt;" style="rounded=0;whiteSpace=wrap;html=1;fillColor=#cce5ff;strokeColor=#36393d;" vertex="1" parent="1">
          <mxGeometry x="190" y="520" width="120" height="60" as="geometry" />
        </mxCell>
        <mxCell id="Jqx5dntZI7fwhoWwZIE8-8" style="edgeStyle=orthogonalEdgeStyle;rounded=0;orthogonalLoop=1;jettySize=auto;html=1;exitX=0.25;exitY=1;exitDx=0;exitDy=0;entryX=0.25;entryY=0;entryDx=0;entryDy=0;" edge="1" parent="1" source="Jqx5dntZI7fwhoWwZIE8-10" target="Jqx5dntZI7fwhoWwZIE8-7">
          <mxGeometry relative="1" as="geometry" />
        </mxCell>
        <mxCell id="Jqx5dntZI7fwhoWwZIE8-9" style="edgeStyle=orthogonalEdgeStyle;rounded=0;orthogonalLoop=1;jettySize=auto;html=1;exitX=1;exitY=0.75;exitDx=0;exitDy=0;entryX=0;entryY=0.5;entryDx=0;entryDy=0;" edge="1" parent="1" source="Jqx5dntZI7fwhoWwZIE8-10" target="Jqx5dntZI7fwhoWwZIE8-13">
          <mxGeometry relative="1" as="geometry" />
        </mxCell>
        <mxCell id="Jqx5dntZI7fwhoWwZIE8-10" value="&lt;b&gt;treatment:&lt;br&gt;purpose&lt;/b&gt;" style="rounded=0;whiteSpace=wrap;html=1;fillColor=#cce5ff;strokeColor=#36393d;" vertex="1" parent="1">
          <mxGeometry x="190" y="350" width="120" height="60" as="geometry" />
        </mxCell>
        <mxCell id="Jqx5dntZI7fwhoWwZIE8-11" value="&lt;b&gt;patient:&lt;br&gt;Subject&lt;/b&gt;" style="rounded=0;whiteSpace=wrap;html=1;fillColor=#cce5ff;strokeColor=#36393d;" vertex="1" parent="1">
          <mxGeometry x="510" y="510" width="120" height="60" as="geometry" />
        </mxCell>
        <mxCell id="Jqx5dntZI7fwhoWwZIE8-12" style="edgeStyle=orthogonalEdgeStyle;rounded=0;orthogonalLoop=1;jettySize=auto;html=1;exitX=1;exitY=0.5;exitDx=0;exitDy=0;entryX=1;entryY=0.5;entryDx=0;entryDy=0;" edge="1" parent="1" source="Jqx5dntZI7fwhoWwZIE8-13" target="Jqx5dntZI7fwhoWwZIE8-15">
          <mxGeometry relative="1" as="geometry" />
        </mxCell>
        <mxCell id="Jqx5dntZI7fwhoWwZIE8-13" value="&lt;b&gt;manager:&lt;br&gt;controller&lt;br&gt;&lt;/b&gt;" style="rounded=0;whiteSpace=wrap;html=1;fillColor=#cce5ff;strokeColor=#36393d;" vertex="1" parent="1">
          <mxGeometry x="510" y="420" width="120" height="60" as="geometry" />
        </mxCell>
        <mxCell id="Jqx5dntZI7fwhoWwZIE8-14" value="&lt;b&gt;access:&lt;br&gt;processing&lt;br&gt;&lt;/b&gt;" style="rounded=0;whiteSpace=wrap;html=1;fillColor=#cce5ff;strokeColor=#36393d;" vertex="1" parent="1">
          <mxGeometry x="510" y="330" width="120" height="60" as="geometry" />
        </mxCell>
        <mxCell id="Jqx5dntZI7fwhoWwZIE8-15" value="&lt;b&gt;communication:&lt;br&gt;Obligation&lt;/b&gt;" style="rounded=0;whiteSpace=wrap;html=1;fillColor=#cce5ff;strokeColor=#36393d;" vertex="1" parent="1">
          <mxGeometry x="510" y="230" width="120" height="60" as="geometry" />
        </mxCell>
        <mxCell id="Jqx5dntZI7fwhoWwZIE8-52" style="edgeStyle=orthogonalEdgeStyle;rounded=0;orthogonalLoop=1;jettySize=auto;html=1;exitX=0;exitY=1;exitDx=0;exitDy=0;exitPerimeter=0;" edge="1" parent="1" source="Jqx5dntZI7fwhoWwZIE8-16">
          <mxGeometry relative="1" as="geometry">
            <mxPoint x="450" y="560" as="targetPoint" />
            <Array as="points">
              <mxPoint x="670" y="620" />
              <mxPoint x="450" y="620" />
            </Array>
          </mxGeometry>
        </mxCell>
        <mxCell id="Jqx5dntZI7fwhoWwZIE8-16" value="the patient owns a case history, the health condition and all the prescribed treatments" style="shape=note;size=20;whiteSpace=wrap;html=1;fillColor=#cdeb8b;strokeColor=#36393d;" vertex="1" parent="1">
          <mxGeometry x="670" y="520" width="140" height="100" as="geometry" />
        </mxCell>
        <mxCell id="Jqx5dntZI7fwhoWwZIE8-53" style="edgeStyle=orthogonalEdgeStyle;rounded=0;orthogonalLoop=1;jettySize=auto;html=1;exitX=0;exitY=1;exitDx=0;exitDy=0;exitPerimeter=0;entryX=0.75;entryY=1;entryDx=0;entryDy=0;" edge="1" parent="1" source="Jqx5dntZI7fwhoWwZIE8-17" target="Jqx5dntZI7fwhoWwZIE8-13">
          <mxGeometry relative="1" as="geometry" />
        </mxCell>
        <mxCell id="Jqx5dntZI7fwhoWwZIE8-17" value="the manager checks whether the actions performed by the doctor comply with the privacy policy" style="shape=note;size=20;whiteSpace=wrap;html=1;fillColor=#cdeb8b;strokeColor=#36393d;" vertex="1" parent="1">
          <mxGeometry x="670" y="370" width="130" height="110" as="geometry" />
        </mxCell>
        <mxCell id="Jqx5dntZI7fwhoWwZIE8-51" style="edgeStyle=orthogonalEdgeStyle;rounded=0;orthogonalLoop=1;jettySize=auto;html=1;exitX=0;exitY=0;exitDx=120;exitDy=60;exitPerimeter=0;" edge="1" parent="1" source="Jqx5dntZI7fwhoWwZIE8-18">
          <mxGeometry relative="1" as="geometry">
            <mxPoint x="220" y="470" as="targetPoint" />
          </mxGeometry>
        </mxCell>
        <mxCell id="Jqx5dntZI7fwhoWwZIE8-18" value="the case history of the patient is updated with prescription of the treatment" style="shape=note;size=20;whiteSpace=wrap;html=1;fillColor=#cdeb8b;strokeColor=#36393d;" vertex="1" parent="1">
          <mxGeometry x="40" y="410" width="120" height="100" as="geometry" />
        </mxCell>
        <mxCell id="Jqx5dntZI7fwhoWwZIE8-50" style="edgeStyle=orthogonalEdgeStyle;rounded=0;orthogonalLoop=1;jettySize=auto;html=1;exitX=0;exitY=0;exitDx=100;exitDy=45;exitPerimeter=0;" edge="1" parent="1" source="Jqx5dntZI7fwhoWwZIE8-19">
          <mxGeometry relative="1" as="geometry">
            <mxPoint x="220" y="335" as="targetPoint" />
          </mxGeometry>
        </mxCell>
        <mxCell id="Jqx5dntZI7fwhoWwZIE8-19" value="the doctor prescribes a treatment" style="shape=note;size=20;whiteSpace=wrap;html=1;fillColor=#cdeb8b;strokeColor=#36393d;" vertex="1" parent="1">
          <mxGeometry x="70" y="290" width="100" height="70" as="geometry" />
        </mxCell>
        <mxCell id="Jqx5dntZI7fwhoWwZIE8-49" style="edgeStyle=orthogonalEdgeStyle;rounded=0;orthogonalLoop=1;jettySize=auto;html=1;exitX=1;exitY=1;exitDx=0;exitDy=0;exitPerimeter=0;" edge="1" parent="1" source="Jqx5dntZI7fwhoWwZIE8-20">
          <mxGeometry relative="1" as="geometry">
            <mxPoint x="340" y="280" as="targetPoint" />
            <Array as="points">
              <mxPoint x="180" y="310" />
              <mxPoint x="260" y="310" />
              <mxPoint x="260" y="300" />
              <mxPoint x="340" y="300" />
            </Array>
          </mxGeometry>
        </mxCell>
        <mxCell id="Jqx5dntZI7fwhoWwZIE8-20" value="the doctor accesses the patient case history" style="shape=note;size=20;whiteSpace=wrap;html=1;fillColor=#cdeb8b;strokeColor=#36393d;" vertex="1" parent="1">
          <mxGeometry x="80" y="190" width="100" height="70" as="geometry" />
        </mxCell>
        <mxCell id="Jqx5dntZI7fwhoWwZIE8-21" style="edgeStyle=orthogonalEdgeStyle;rounded=0;orthogonalLoop=1;jettySize=auto;html=1;exitX=0.5;exitY=1;exitDx=0;exitDy=0;exitPerimeter=0;entryX=0.5;entryY=0;entryDx=0;entryDy=0;" edge="1" parent="1" source="Jqx5dntZI7fwhoWwZIE8-22" target="Jqx5dntZI7fwhoWwZIE8-15">
          <mxGeometry relative="1" as="geometry" />
        </mxCell>
        <mxCell id="Jqx5dntZI7fwhoWwZIE8-22" value="the doctor has to communicateany diagnosed contagious disease to the supervisor" style="shape=note;size=20;whiteSpace=wrap;html=1;fillColor=#cdeb8b;strokeColor=#36393d;" vertex="1" parent="1">
          <mxGeometry x="510" y="120" width="200" height="80" as="geometry" />
        </mxCell>
        <mxCell id="Jqx5dntZI7fwhoWwZIE8-23" style="edgeStyle=orthogonalEdgeStyle;rounded=0;orthogonalLoop=1;jettySize=auto;html=1;exitX=0.5;exitY=1;exitDx=0;exitDy=0;exitPerimeter=0;" edge="1" parent="1" source="Jqx5dntZI7fwhoWwZIE8-24">
          <mxGeometry relative="1" as="geometry">
            <mxPoint x="350" y="250" as="targetPoint" />
          </mxGeometry>
        </mxCell>
        <mxCell id="Jqx5dntZI7fwhoWwZIE8-24" value="the doctor instantiate a communication" style="shape=note;size=20;whiteSpace=wrap;html=1;fillColor=#cdeb8b;strokeColor=#36393d;" vertex="1" parent="1">
          <mxGeometry x="300" y="170" width="110" height="50" as="geometry" />
        </mxCell>
      </root>
    </mxGraphModel>
  </diagram>
</mxfile>
